<svg width="130" height="21" viewBox="0 0 130 21" fill="none" xmlns="http://www.w3.org/2000/svg">
<path d="M5.253 4.939V9.736H11.727V13.129H5.253V20.5H0.833V1.559H13.027V4.939H5.253ZM20.1122 6.811C21.1349 6.811 22.0665 6.97133 22.9072 7.292C23.7479 7.61267 24.4672 8.072 25.0652 8.67C25.6719 9.268 26.1399 9.996 26.4692 10.854C26.8072 11.7033 26.9762 12.661 26.9762 13.727C26.9762 14.8017 26.8072 15.7723 26.4692 16.639C26.1399 17.497 25.6719 18.2293 25.0652 18.836C24.4672 19.434 23.7479 19.8977 22.9072 20.227C22.0665 20.5477 21.1349 20.708 20.1122 20.708C19.0809 20.708 18.1405 20.5477 17.2912 20.227C16.4505 19.8977 15.7225 19.434 15.1072 18.836C14.5005 18.2293 14.0282 17.497 13.6902 16.639C13.3609 15.7723 13.1962 14.8017 13.1962 13.727C13.1962 12.661 13.3609 11.7033 13.6902 10.854C14.0282 9.996 14.5005 9.268 15.1072 8.67C15.7225 8.072 16.4505 7.61267 17.2912 7.292C18.1405 6.97133 19.0809 6.811 20.1122 6.811ZM20.1122 17.718C21.0395 17.718 21.7199 17.393 22.1532 16.743C22.5952 16.0843 22.8162 15.0877 22.8162 13.753C22.8162 12.4183 22.5952 11.426 22.1532 10.776C21.7199 10.126 21.0395 9.801 20.1122 9.801C19.1589 9.801 18.4612 10.126 18.0192 10.776C17.5772 11.426 17.3562 12.4183 17.3562 13.753C17.3562 15.0877 17.5772 16.0843 18.0192 16.743C18.4612 17.393 19.1589 17.718 20.1122 17.718ZM35.2196 6.811C36.2423 6.811 37.174 6.97133 38.0146 7.292C38.8553 7.61267 39.5746 8.072 40.1726 8.67C40.7793 9.268 41.2473 9.996 41.5766 10.854C41.9146 11.7033 42.0836 12.661 42.0836 13.727C42.0836 14.8017 41.9146 15.7723 41.5766 16.639C41.2473 17.497 40.7793 18.2293 40.1726 18.836C39.5746 19.434 38.8553 19.8977 38.0146 20.227C37.174 20.5477 36.2423 20.708 35.2196 20.708C34.1883 20.708 33.248 20.5477 32.3986 20.227C31.558 19.8977 30.83 19.434 30.2146 18.836C29.608 18.2293 29.1356 17.497 28.7976 16.639C28.4683 15.7723 28.3036 14.8017 28.3036 13.727C28.3036 12.661 28.4683 11.7033 28.7976 10.854C29.1356 9.996 29.608 9.268 30.2146 8.67C30.83 8.072 31.558 7.61267 32.3986 7.292C33.248 6.97133 34.1883 6.811 35.2196 6.811ZM35.2196 17.718C36.147 17.718 36.8273 17.393 37.2606 16.743C37.7026 16.0843 37.9236 15.0877 37.9236 13.753C37.9236 12.4183 37.7026 11.426 37.2606 10.776C36.8273 10.126 36.147 9.801 35.2196 9.801C34.2663 9.801 33.5686 10.126 33.1266 10.776C32.6846 11.426 32.4636 12.4183 32.4636 13.753C32.4636 15.0877 32.6846 16.0843 33.1266 16.743C33.5686 17.393 34.2663 17.718 35.2196 17.718ZM52.29 10.633C51.9867 10.295 51.6574 10.061 51.302 9.931C50.9467 9.79233 50.574 9.723 50.184 9.723C49.8114 9.723 49.469 9.79667 49.157 9.944C48.845 10.0913 48.572 10.3297 48.338 10.659C48.1127 10.9797 47.935 11.4 47.805 11.92C47.675 12.44 47.61 13.0683 47.61 13.805C47.61 14.5157 47.662 15.1137 47.766 15.599C47.87 16.0843 48.013 16.4787 48.195 16.782C48.3857 17.0767 48.611 17.289 48.871 17.419C49.131 17.549 49.4214 17.614 49.742 17.614C50.0367 17.614 50.301 17.588 50.535 17.536C50.7777 17.4753 50.9987 17.393 51.198 17.289C51.3974 17.185 51.5837 17.055 51.757 16.899C51.939 16.7343 52.1167 16.548 52.29 16.34V10.633ZM56.32 1.039V20.5H53.824C53.3214 20.5 52.992 20.2747 52.836 19.824L52.524 18.797C52.2554 19.083 51.9737 19.343 51.679 19.577C51.3844 19.811 51.0637 20.0147 50.717 20.188C50.379 20.3527 50.0107 20.4783 49.612 20.565C49.222 20.6603 48.7974 20.708 48.338 20.708C47.636 20.708 46.986 20.552 46.388 20.24C45.79 19.928 45.2744 19.4773 44.841 18.888C44.4077 18.2987 44.0654 17.5793 43.814 16.73C43.5714 15.872 43.45 14.897 43.45 13.805C43.45 12.7997 43.5887 11.868 43.866 11.01C44.1434 10.1433 44.5334 9.398 45.036 8.774C45.5474 8.14133 46.1584 7.64733 46.869 7.292C47.5797 6.93667 48.364 6.759 49.222 6.759C49.924 6.759 50.5134 6.85867 50.99 7.058C51.4667 7.25733 51.9 7.526 52.29 7.864V1.039H56.32ZM84.6437 5.407C84.5137 5.615 84.375 5.771 84.2277 5.875C84.089 5.979 83.907 6.031 83.6817 6.031C83.4824 6.031 83.2657 5.97033 83.0317 5.849C82.8064 5.719 82.5464 5.576 82.2517 5.42C81.9657 5.264 81.6364 5.12533 81.2637 5.004C80.891 4.874 80.4664 4.809 79.9897 4.809C79.1664 4.809 78.551 4.98667 78.1437 5.342C77.745 5.68867 77.5457 6.161 77.5457 6.759C77.5457 7.14033 77.667 7.45667 77.9097 7.708C78.1524 7.95933 78.4687 8.176 78.8587 8.358C79.2574 8.54 79.708 8.709 80.2107 8.865C80.722 9.01233 81.242 9.18133 81.7707 9.372C82.2994 9.554 82.815 9.77067 83.3177 10.022C83.829 10.2733 84.2797 10.594 84.6697 10.984C85.0684 11.374 85.389 11.8507 85.6317 12.414C85.8744 12.9687 85.9957 13.6403 85.9957 14.429C85.9957 15.3043 85.844 16.1233 85.5407 16.886C85.2374 17.6487 84.7954 18.316 84.2147 18.888C83.6427 19.4513 82.932 19.8977 82.0827 20.227C81.242 20.5477 80.2844 20.708 79.2097 20.708C78.6204 20.708 78.018 20.6473 77.4027 20.526C76.796 20.4047 76.2067 20.2357 75.6347 20.019C75.0627 19.7937 74.5254 19.5293 74.0227 19.226C73.52 18.9227 73.0824 18.5847 72.7097 18.212L74.0097 16.158C74.1137 16.0107 74.248 15.8893 74.4127 15.794C74.586 15.69 74.7724 15.638 74.9717 15.638C75.2317 15.638 75.4917 15.7203 75.7517 15.885C76.0204 16.0497 76.3194 16.2317 76.6487 16.431C76.9867 16.6303 77.3724 16.8123 77.8057 16.977C78.239 17.1417 78.7504 17.224 79.3397 17.224C80.137 17.224 80.7567 17.0507 81.1987 16.704C81.6407 16.3487 81.8617 15.7897 81.8617 15.027C81.8617 14.585 81.7404 14.2253 81.4977 13.948C81.255 13.6707 80.9344 13.441 80.5357 13.259C80.1457 13.077 79.6994 12.9167 79.1967 12.778C78.694 12.6393 78.1784 12.4877 77.6497 12.323C77.121 12.1497 76.6054 11.9417 76.1027 11.699C75.6 11.4477 75.1494 11.1227 74.7507 10.724C74.3607 10.3167 74.0444 9.814 73.8017 9.216C73.559 8.60933 73.4377 7.864 73.4377 6.98C73.4377 6.26933 73.5807 5.576 73.8667 4.9C74.1527 4.224 74.573 3.62167 75.1277 3.093C75.6824 2.56433 76.3627 2.144 77.1687 1.832C77.9747 1.51133 78.8977 1.351 79.9377 1.351C80.5184 1.351 81.0817 1.39867 81.6277 1.494C82.1824 1.58067 82.7067 1.715 83.2007 1.897C83.6947 2.07033 84.154 2.28267 84.5787 2.534C85.012 2.77667 85.3977 3.054 85.7357 3.366L84.6437 5.407ZM92.3462 20.708C91.7049 20.708 91.1372 20.617 90.6432 20.435C90.1579 20.2443 89.7462 19.98 89.4082 19.642C89.0789 19.2953 88.8275 18.8793 88.6542 18.394C88.4809 17.9087 88.3942 17.367 88.3942 16.769V9.801H87.2502C87.0422 9.801 86.8645 9.736 86.7172 9.606C86.5699 9.46733 86.4962 9.268 86.4962 9.008V7.435L88.6412 7.019L89.4342 3.73C89.5382 3.314 89.8329 3.106 90.3182 3.106H92.4242V7.045H95.7652V9.801H92.4242V16.496C92.4242 16.808 92.4979 17.068 92.6452 17.276C92.8012 17.4753 93.0222 17.575 93.3082 17.575C93.4555 17.575 93.5769 17.562 93.6722 17.536C93.7762 17.5013 93.8629 17.4667 93.9322 17.432C94.0102 17.3887 94.0795 17.354 94.1402 17.328C94.2095 17.2933 94.2875 17.276 94.3742 17.276C94.4955 17.276 94.5909 17.3063 94.6602 17.367C94.7382 17.419 94.8162 17.5057 94.8942 17.627L96.1162 19.538C95.5962 19.928 95.0112 20.2227 94.3612 20.422C93.7112 20.6127 93.0395 20.708 92.3462 20.708ZM109.592 7.019V20.5H107.096C106.593 20.5 106.264 20.2747 106.108 19.824L105.874 19.044C105.614 19.2953 105.345 19.525 105.068 19.733C104.79 19.9323 104.491 20.1057 104.171 20.253C103.859 20.3917 103.516 20.5 103.144 20.578C102.78 20.6647 102.381 20.708 101.948 20.708C101.211 20.708 100.557 20.5823 99.9847 20.331C99.4214 20.071 98.9447 19.7113 98.5547 19.252C98.1647 18.7927 97.8701 18.251 97.6707 17.627C97.4714 17.003 97.3717 16.3183 97.3717 15.573V7.019H101.402V15.573C101.402 16.2403 101.553 16.756 101.857 17.12C102.16 17.484 102.606 17.666 103.196 17.666C103.638 17.666 104.049 17.575 104.431 17.393C104.821 17.2023 105.198 16.9467 105.562 16.626V7.019H109.592ZM113.331 20.5V9.788L112.447 9.606C112.144 9.53667 111.897 9.42833 111.706 9.281C111.524 9.13367 111.433 8.917 111.433 8.631V7.045H113.331V6.538C113.331 5.76667 113.452 5.069 113.695 4.445C113.946 3.81233 114.302 3.275 114.761 2.833C115.229 2.391 115.797 2.053 116.464 1.819C117.131 1.57633 117.89 1.455 118.739 1.455C119.068 1.455 119.372 1.47667 119.649 1.52C119.926 1.55467 120.217 1.611 120.52 1.689L120.442 3.652C120.425 3.92933 120.308 4.12433 120.091 4.237C119.883 4.341 119.666 4.393 119.441 4.393C119.086 4.393 118.769 4.42767 118.492 4.497C118.215 4.56633 117.981 4.68767 117.79 4.861C117.608 5.03433 117.469 5.26833 117.374 5.563C117.279 5.849 117.231 6.213 117.231 6.655V7.045H121.963V6.031C121.963 5.25967 122.084 4.562 122.327 3.938C122.578 3.314 122.934 2.781 123.393 2.339C123.861 1.897 124.429 1.55467 125.096 1.312C125.763 1.06933 126.522 0.947999 127.371 0.947999C127.7 0.947999 128.004 0.969666 128.281 1.013C128.558 1.04767 128.849 1.10833 129.152 1.195L129.074 3.158C129.065 3.29667 129.031 3.41367 128.97 3.509C128.909 3.59567 128.827 3.66933 128.723 3.73C128.628 3.782 128.524 3.821 128.411 3.847C128.298 3.873 128.186 3.886 128.073 3.886C127.718 3.886 127.401 3.92067 127.124 3.99C126.847 4.05933 126.613 4.185 126.422 4.367C126.24 4.54033 126.101 4.77433 126.006 5.069C125.911 5.355 125.863 5.719 125.863 6.161V7.045H129.022V9.801H125.993V20.5H121.963V9.801H117.361V20.5H113.331Z" fill="#F96E62"/>
<path d="M62.4377 14.04C62.0711 14.3467 61.8111 14.6767 61.6577 15.03C61.5044 15.3767 61.4277 15.7467 61.4277 16.14C61.4277 16.46 61.4744 16.75 61.5677 17.01C61.6677 17.27 61.8077 17.4933 61.9877 17.68C62.1677 17.8667 62.3811 18.0133 62.6277 18.12C62.8811 18.22 63.1611 18.27 63.4677 18.27C63.9144 18.27 64.3311 18.2133 64.7177 18.1C65.1044 17.98 65.4644 17.8133 65.7977 17.6L62.4377 14.04ZM72.4077 20.5H69.3477C69.1944 20.5 69.0577 20.4933 68.9377 20.48C68.8177 20.46 68.7044 20.43 68.5977 20.39C68.4977 20.35 68.4011 20.2933 68.3077 20.22C68.2144 20.1467 68.1144 20.0533 68.0077 19.94L67.3777 19.28C66.7444 19.72 66.0511 20.06 65.2977 20.3C64.5511 20.54 63.7544 20.66 62.9077 20.66C62.3277 20.66 61.7577 20.56 61.1977 20.36C60.6444 20.16 60.1511 19.8767 59.7177 19.51C59.2844 19.1367 58.9344 18.6867 58.6677 18.16C58.4011 17.6333 58.2677 17.0433 58.2677 16.39C58.2677 15.95 58.3344 15.5333 58.4677 15.14C58.6077 14.7467 58.8011 14.3833 59.0477 14.05C59.3011 13.71 59.5977 13.4033 59.9377 13.13C60.2777 12.85 60.6544 12.6067 61.0677 12.4C60.7477 11.9133 60.5177 11.4367 60.3777 10.97C60.2377 10.5033 60.1677 10.05 60.1677 9.61C60.1677 9.09 60.2611 8.6 60.4477 8.14C60.6411 7.67333 60.9177 7.26667 61.2777 6.92C61.6444 6.56667 62.0911 6.28667 62.6177 6.08C63.1511 5.87333 63.7611 5.77 64.4477 5.77C65.0944 5.77 65.6644 5.86667 66.1577 6.06C66.6511 6.24667 67.0677 6.49667 67.4077 6.81C67.7477 7.11667 68.0144 7.47333 68.2077 7.88C68.4011 8.28667 68.5211 8.70333 68.5677 9.13L66.5677 9.53C66.2144 9.61 65.9544 9.47 65.7877 9.11C65.6344 8.76333 65.4544 8.5 65.2477 8.32C65.0477 8.14 64.7811 8.05 64.4477 8.05C64.2144 8.05 64.0111 8.09333 63.8377 8.18C63.6644 8.26667 63.5177 8.38 63.3977 8.52C63.2844 8.66 63.1977 8.82333 63.1377 9.01C63.0777 9.19667 63.0477 9.39 63.0477 9.59C63.0477 9.76333 63.0611 9.93 63.0877 10.09C63.1211 10.2433 63.1744 10.4033 63.2477 10.57C63.3211 10.73 63.4177 10.8967 63.5377 11.07C63.6644 11.2433 63.8211 11.4333 64.0077 11.64L67.6077 15.43C67.7877 15.0367 67.9344 14.6233 68.0477 14.19C68.1611 13.75 68.2344 13.3 68.2677 12.84C68.2877 12.6533 68.3511 12.5067 68.4577 12.4C68.5644 12.2933 68.7077 12.24 68.8877 12.24H70.8477C70.8477 13.2067 70.7177 14.1133 70.4577 14.96C70.1977 15.8067 69.8311 16.58 69.3577 17.28L72.4077 20.5Z" fill="#4D4D4D"/>
</svg>
