<svg width="17" height="18" viewBox="0 0 17 18" fill="none" xmlns="http://www.w3.org/2000/svg">
<path fill-rule="evenodd" clip-rule="evenodd" d="M9.91667 1.91667C9.91667 1.13426 9.2824 0.5 8.5 0.5C7.7176 0.5 7.08333 1.13426 7.08333 1.91667V7.58333H1.41667C0.634263 7.58333 0 8.2176 0 9C0 9.7824 0.634263 10.4167 1.41667 10.4167H7.08333V16.0833C7.08333 16.8657 7.7176 17.5 8.5 17.5C9.2824 17.5 9.91667 16.8657 9.91667 16.0833V10.4167H15.5833C16.3657 10.4167 17 9.7824 17 9C17 8.2176 16.3657 7.58333 15.5833 7.58333H9.91667V1.91667Z" fill="#494953"/>
</svg>
